<?xml version="1.0" encoding="UTF-8" standalone="no"?>
<!-- Created with Inkscape (http://www.inkscape.org/) -->

<svg
   xmlns:dc="http://purl.org/dc/elements/1.1/"
   xmlns:cc="http://creativecommons.org/ns#"
   xmlns:rdf="http://www.w3.org/1999/02/22-rdf-syntax-ns#"
   xmlns:svg="http://www.w3.org/2000/svg"
   xmlns="http://www.w3.org/2000/svg"
   xmlns:sodipodi="http://sodipodi.sourceforge.net/DTD/sodipodi-0.dtd"
   xmlns:inkscape="http://www.inkscape.org/namespaces/inkscape"
   width="210mm"
   height="297mm"
   viewBox="0 0 210 297"
   version="1.1"
   id="svg8"
   inkscape:version="0.92.5 (2060ec1f9f, 2020-04-08)"
   sodipodi:docname="header_ost.svg">
  <defs
     id="defs2" />
  <sodipodi:namedview
     id="base"
     pagecolor="#ffffff"
     bordercolor="#666666"
     borderopacity="1.0"
     inkscape:pageopacity="0.0"
     inkscape:pageshadow="2"
     inkscape:zoom="1"
     inkscape:cx="309.59501"
     inkscape:cy="1056.5071"
     inkscape:document-units="mm"
     inkscape:current-layer="layer1"
     showgrid="false"
     inkscape:window-width="1920"
     inkscape:window-height="1009"
     inkscape:window-x="0"
     inkscape:window-y="0"
     inkscape:window-maximized="1" />
  <metadata
     id="metadata5">
    <rdf:RDF>
      <cc:Work
         rdf:about="">
        <dc:format>image/svg+xml</dc:format>
        <dc:type
           rdf:resource="http://purl.org/dc/dcmitype/StillImage" />
        <dc:title></dc:title>
      </cc:Work>
    </rdf:RDF>
  </metadata>
  <g
     inkscape:label="Layer 1"
     inkscape:groupmode="layer"
     id="layer1">
    <path
       inkscape:connector-curvature="0"
       id="path827"
       style="fill:#231f20;fill-opacity:1;fill-rule:nonzero;stroke:none;stroke-width:0.03527778"
       d="M -0.48947194,0.11018437 V 40.154698 H 135.82951 c -0.30056,-0.213045 -0.58032,-0.438492 -0.82973,-0.677305 -2.22603,-2.152357 -2.25707,-4.652533 -2.32057,-6.995189 V 19.187702 h 7.12117 v 13.959665 c 0,0.949748 0.0325,1.930788 0.82691,2.690072 0.57186,0.601803 1.43087,0.822967 2.25707,0.822967 1.11267,0 1.84468,-0.412017 2.25778,-0.790865 0.82621,-0.791386 0.85796,-1.772426 0.85796,-2.722174 V 19.187702 h 7.15327 v 11.901841 c 0,2.563143 0,5.8874 -2.63877,8.38785 -0.25224,0.236333 -0.53058,0.46178 -0.83044,0.677305 h 10.66412 c -3.13902,-2.252543 -4.61434,-6.016237 -4.61434,-9.667064 0,-6.01405 4.03825,-12.123456 11.63603,-12.123456 3.40183,0 6.64421,1.203466 8.99724,3.609657 0.95427,0.980864 1.39947,1.740324 1.87572,2.626114 l -5.9443,2.944742 c -0.57327,-1.330361 -1.65383,-3.704026 -4.64256,-3.704026 -1.55787,0 -2.54318,0.728275 -3.02013,1.203149 -1.68522,1.613676 -1.68522,4.146091 -1.68522,5.033716 0,3.322567 1.24107,6.456927 4.7378,6.456927 3.30659,0 4.2919,-2.912781 4.54661,-3.672064 l 6.0399,2.912216 c -0.57255,1.075965 -1.11266,2.088825 -2.19286,3.164798 -0.46391,0.454339 -0.96626,0.857966 -1.49684,1.215291 h 6.53133 V 19.155741 h 7.08872 v 16.504215 h 9.19974 v 4.494742 h 12.10521 V 0.11018437 H -0.48947194" />
    <path
       inkscape:connector-curvature="0"
       id="path829"
       style="fill:#ffffff;fill-opacity:1;fill-rule:nonzero;stroke:none;stroke-width:0.03527778"
       d="m 129.07241,24.203497 c -0.0138,-0.0029 -3.83646,-0.824195 -3.83646,-0.824195 0,0 -3.82764,0.822396 -3.83505,0.824195 -0.0208,0.0041 -0.0138,0.02191 -0.0138,0.02191 l 0.0529,0.19611 0.0109,-2.83e-4 -0.001,2.83e-4 c 0,0 0.0593,-0.0073 0.0938,0.04738 l 0.0572,0.315313 c 0,0 0.001,0.02205 0.024,0.02205 0.0236,0 0.13865,0 0.13865,0 h 6.94584 c 0,0 0.12065,0 0.14005,0 0.0194,0 0.0212,-0.01626 0.0212,-0.01626 l 0.0575,-0.315313 c 0.0328,-0.06174 0.097,-0.05316 0.097,-0.05316 l -0.001,-2.83e-4 0.01,2.83e-4 0.0533,-0.19611 c 0,0 0.007,-0.01778 -0.0138,-0.02191" />
    <path
       inkscape:connector-curvature="0"
       id="path831"
       style="fill:#ffffff;fill-opacity:1;fill-rule:nonzero;stroke:none;stroke-width:0.03527778"
       d="m 128.6713,24.907677 c 0.004,0 0.008,-0.0033 0.008,-0.0087 v -0.09786 c 0,-0.0049 -0.004,-8.12e-4 -0.008,-8.12e-4 h -0.58279 c -0.004,0 -0.009,-0.0041 -0.009,8.12e-4 v 0.09786 c 0,0.0054 0.005,0.0087 0.009,0.0087 l 0.0247,2.82e-4 c 0.0116,0 0.0123,0.01171 0.0123,0.02314 0,0.0146 0.006,0.09038 0.0593,0.136137 0.008,0.0066 0.006,0.02522 -0.0109,0.02522 -0.001,0 -0.0166,0 -0.018,0 -0.013,0 -0.0138,0.009 -0.01,0.01598 0.005,0.0088 0.006,0.03475 0.006,0.04671 0,0.01228 0,0.0339 0,0.04258 0,0.0077 7.1e-4,0.01393 0.008,0.01393 7.1e-4,0 0.008,0 0.009,0 0,0 0.006,-7.05e-4 0.006,0.0062 0,0.0056 0,0.0084 0,0.0084 v 2.143549 c -0.006,0.0066 -0.0289,0.02963 -0.031,0.03126 -0.001,0.0018 -0.004,0.0046 -0.004,0.0079 v 0.03637 c 0,0.0026 -7e-4,0.0062 -0.003,0.0077 -0.001,0.0018 -0.005,0.0026 -0.008,0.0026 h -0.0268 c -0.005,0 -0.009,0.0043 -0.009,0.0088 0,0 0,0.05969 0,0.06188 h 0.57115 c 0,-0.0022 0,-0.06188 0,-0.06188 0,-0.0046 -0.004,-0.0088 -0.008,-0.0088 h -0.0268 c -0.004,0 -0.006,-8.12e-4 -0.008,-0.0026 -0.001,-0.0015 -0.002,-0.0051 -0.002,-0.0077 v -0.03637 c 0,-0.0028 -7.1e-4,-0.005 -0.004,-0.0076 -0.004,-0.0029 -0.0222,-0.02205 -0.031,-0.03154 V 25.22627 c 0,0 0,-0.0028 0,-0.0084 0,-0.0069 0.006,-0.0062 0.006,-0.0062 3.5e-4,0 0.007,0 0.008,0 0.007,0 0.009,-0.0062 0.009,-0.01393 0,-0.0087 0,-0.0303 0,-0.04258 0,-0.01196 0.002,-0.03789 0.006,-0.04671 0.005,-0.007 0.004,-0.01598 -0.0102,-0.01598 -7e-4,0 -0.0166,0 -0.0173,0 -0.0166,0 -0.0187,-0.01873 -0.0116,-0.02522 0.0536,-0.04367 0.0593,-0.119733 0.0593,-0.134479 0,-0.01309 -7e-4,-0.0248 0.0138,-0.0248 l 0.024,-2.82e-4" />
    <path
       inkscape:connector-curvature="0"
       id="path833"
       style="fill:#ffffff;fill-opacity:1;fill-rule:nonzero;stroke:none;stroke-width:0.03527778"
       d="m 127.41471,24.907677 c 0.004,0 0.008,-0.0033 0.008,-0.0087 v -0.09786 c 0,-0.0049 -0.004,-8.12e-4 -0.008,-8.12e-4 h -0.58385 c -0.005,0 -0.008,-0.0041 -0.008,8.12e-4 v 0.09786 c 0,0.0054 0.004,0.0087 0.008,0.0087 l 0.0254,2.82e-4 c 0.0113,0 0.012,0.01171 0.012,0.02314 0,0.0146 0.007,0.09038 0.0593,0.136137 0.007,0.0066 0.005,0.02522 -0.0106,0.02522 -0.001,0 -0.0169,0 -0.0176,0 -0.0138,0 -0.0152,0.009 -0.0113,0.01598 0.006,0.0088 0.006,0.03475 0.006,0.04671 0,0.01228 0,0.0339 0,0.04258 0,0.0077 0.001,0.01393 0.009,0.01393 h 0.008 c 0,0 0.006,-7.05e-4 0.006,0.0062 0,0.0056 7.1e-4,0.0084 7.1e-4,0.0084 v 2.143549 c -0.007,0.0066 -0.0303,0.02963 -0.0318,0.03126 -0.002,0.0018 -0.003,0.0046 -0.003,0.0079 v 0.03637 c 0,0.0026 0,0.0062 -0.003,0.0077 -0.001,0.0018 -0.004,0.0026 -0.008,0.0026 h -0.0275 c -0.004,0 -0.007,0.0043 -0.007,0.0088 0,0 0,0.05969 0,0.06188 h 0.56974 c 0,-0.0022 0,-0.06188 0,-0.06188 0,-0.0046 -0.004,-0.0088 -0.008,-0.0088 h -0.0272 c -0.003,0 -0.007,-8.12e-4 -0.008,-0.0026 -0.002,-0.0015 -0.003,-0.0051 -0.003,-0.0077 v -0.03637 c 0,-0.0028 -7.1e-4,-0.005 -0.004,-0.0076 -0.002,-0.0029 -0.0212,-0.02205 -0.0311,-0.03154 V 25.22627 c 0,0 0,-0.0028 0,-0.0084 0,-0.0069 0.006,-0.0062 0.006,-0.0062 7.1e-4,0 0.007,0 0.008,0 0.007,0 0.008,-0.0062 0.008,-0.01393 0,-0.0087 0,-0.0303 0,-0.04258 0,-0.01196 0.003,-0.03789 0.007,-0.04671 0.004,-0.007 0.002,-0.01598 -0.0109,-0.01598 -7e-4,0 -0.0159,0 -0.0173,0 -0.0166,0 -0.0184,-0.01873 -0.0109,-0.02522 0.0536,-0.04367 0.0593,-0.119733 0.0593,-0.134479 0,-0.01309 -7.1e-4,-0.0248 0.0131,-0.0248 l 0.025,-2.82e-4" />
    <path
       inkscape:connector-curvature="0"
       id="path835"
       style="fill:#ffffff;fill-opacity:1;fill-rule:nonzero;stroke:none;stroke-width:0.03527778"
       d="m 126.15705,24.907677 c 0.005,0 0.008,-0.0033 0.008,-0.0087 v -0.09786 c 0,-0.0049 -0.003,-8.12e-4 -0.008,-8.12e-4 h -0.58349 c -0.005,0 -0.008,-0.0041 -0.008,8.12e-4 v 0.09786 c 0,0.0054 0.004,0.0087 0.008,0.0087 l 0.0254,2.82e-4 c 0.0109,0 0.0116,0.01171 0.0116,0.02314 0,0.0146 0.007,0.09038 0.06,0.136137 0.007,0.0066 0.004,0.02522 -0.0109,0.02522 -0.001,0 -0.0173,0 -0.018,0 -0.0138,0 -0.0145,0.009 -0.0102,0.01598 0.005,0.0088 0.006,0.03475 0.006,0.04671 0,0.01228 0,0.0339 0,0.04258 0,0.0077 7.1e-4,0.01393 0.008,0.01393 7.1e-4,0 0.009,0 0.01,0 0,0 0.006,-7.05e-4 0.006,0.0062 0,0.0056 0,0.0084 0,0.0084 v 2.143549 c -0.006,0.0066 -0.0296,0.02963 -0.0318,0.03126 -0.002,0.0018 -0.004,0.0046 -0.004,0.0079 v 0.03637 c 0,0.0026 -7.1e-4,0.0062 -0.002,0.0077 -0.002,0.0018 -0.005,0.0026 -0.008,0.0026 h -0.0268 c -0.004,0 -0.008,0.0043 -0.008,0.0088 0,0 0,0.05969 0,0.06188 h 0.57009 c 0,-0.0022 0,-0.06188 0,-0.06188 0,-0.0046 -0.004,-0.0088 -0.008,-0.0088 h -0.0268 c -0.004,0 -0.007,-8.12e-4 -0.008,-0.0026 -10e-4,-0.0015 -0.002,-0.0051 -0.002,-0.0077 v -0.03637 c 0,-0.0028 -7.1e-4,-0.005 -0.003,-0.0076 -0.004,-0.0029 -0.0215,-0.02205 -0.0318,-0.03154 V 25.22627 c 0,0 0,-0.0028 0,-0.0084 0,-0.0069 0.006,-0.0062 0.006,-0.0062 7.1e-4,0 0.007,0 0.007,0 0.009,0 0.01,-0.0062 0.01,-0.01393 0,-0.0087 0,-0.0303 0,-0.04258 0,-0.01196 0.002,-0.03789 0.007,-0.04671 0.004,-0.007 0.004,-0.01598 -0.0102,-0.01598 -7.1e-4,0 -0.0166,0 -0.018,0 -0.0166,0 -0.0187,-0.01873 -0.0102,-0.02522 0.0529,-0.04367 0.0579,-0.119733 0.0579,-0.134479 0,-0.01309 0,-0.0248 0.0138,-0.0248 l 0.0247,-2.82e-4" />
    <path
       inkscape:connector-curvature="0"
       id="path837"
       style="fill:#ffffff;fill-opacity:1;fill-rule:nonzero;stroke:none;stroke-width:0.03527778"
       d="m 124.89975,24.907677 c 0.005,0 0.008,-0.0033 0.008,-0.0087 v -0.09786 c 0,-0.0049 -0.004,-8.12e-4 -0.008,-8.12e-4 h -0.58384 c -0.005,0 -0.007,-0.0041 -0.007,8.12e-4 v 0.09786 c 0,0.0054 0.003,0.0087 0.007,0.0087 l 0.025,2.82e-4 c 0.0116,0 0.0123,0.01171 0.0123,0.02314 0,0.0146 0.007,0.09038 0.06,0.136137 0.007,0.0066 0.004,0.02522 -0.0113,0.02522 -0.001,0 -0.0169,0 -0.0176,0 -0.0137,0 -0.0145,0.009 -0.0106,0.01598 0.005,0.0088 0.006,0.03475 0.006,0.04671 0,0.01228 0,0.0339 0,0.04258 0,0.0077 7.1e-4,0.01393 0.009,0.01393 0,0 0.008,0 0.008,0 0,0 0.006,-7.05e-4 0.006,0.0062 0,0.0056 0,0.0084 0,0.0084 v 2.143549 c -0.006,0.0066 -0.0296,0.02963 -0.0314,0.03126 -10e-4,0.0018 -0.003,0.0046 -0.003,0.0079 v 0.03637 c 0,0.0026 -7e-4,0.0062 -0.003,0.0077 -0.002,0.0018 -0.006,0.0026 -0.008,0.0026 h -0.0268 c -0.005,0 -0.008,0.0043 -0.008,0.0088 0,0 0,0.05969 0,0.06188 h 0.56974 c 0,-0.0022 0,-0.06188 0,-0.06188 0,-0.0046 -0.004,-0.0088 -0.008,-0.0088 h -0.0272 c -0.003,0 -0.006,-8.12e-4 -0.008,-0.0026 -0.001,-0.0015 -0.002,-0.0051 -0.002,-0.0077 v -0.03637 c 0,-0.0028 -7.1e-4,-0.005 -0.004,-0.0076 -0.003,-0.0029 -0.0219,-0.02205 -0.0307,-0.03154 V 25.22627 c 0,0 -7.1e-4,-0.0028 -7.1e-4,-0.0084 0,-0.0069 0.006,-0.0062 0.006,-0.0062 7.1e-4,0 0.008,0 0.008,0 0.007,0 0.008,-0.0062 0.008,-0.01393 0,-0.0087 0,-0.0303 0,-0.04258 0,-0.01196 0.002,-0.03789 0.007,-0.04671 0.004,-0.007 0.002,-0.01598 -0.0106,-0.01598 -10e-4,0 -0.0166,0 -0.0173,0 -0.0169,0 -0.0191,-0.01873 -0.0116,-0.02522 0.054,-0.04367 0.0593,-0.119733 0.0593,-0.134479 0,-0.01309 -7e-4,-0.0248 0.0131,-0.0248 l 0.025,-2.82e-4" />
    <path
       inkscape:connector-curvature="0"
       id="path839"
       style="fill:#ffffff;fill-opacity:1;fill-rule:nonzero;stroke:none;stroke-width:0.03527778"
       d="m 123.6421,24.907677 c 0.005,0 0.008,-0.0033 0.008,-0.0087 v -0.09786 c 0,-0.0049 -0.004,-8.12e-4 -0.008,-8.12e-4 h -0.58279 c -0.005,0 -0.008,-0.0041 -0.008,8.12e-4 v 0.09786 c 0,0.0054 0.004,0.0087 0.008,0.0087 l 0.024,2.82e-4 c 0.0124,0 0.0131,0.01171 0.0131,0.02314 0,0.0146 0.007,0.09038 0.06,0.136137 0.007,0.0066 0.004,0.02522 -0.0116,0.02522 -7e-4,0 -0.0173,0 -0.018,0 -0.0138,0 -0.0145,0.009 -0.0102,0.01598 0.005,0.0088 0.006,0.03475 0.006,0.04671 0,0.01228 0,0.0339 0,0.04258 0,0.0077 7e-4,0.01393 0.009,0.01393 7.1e-4,0 0.007,0 0.008,0 0,0 0.006,-7.05e-4 0.006,0.0062 0,0.0056 0,0.0084 0,0.0084 v 2.143549 c -0.006,0.0066 -0.0296,0.02963 -0.031,0.03126 -0.002,0.0018 -0.004,0.0046 -0.004,0.0079 v 0.03637 c 0,0.0026 -7e-4,0.0062 -0.003,0.0077 -10e-4,0.0018 -0.005,0.0026 -0.008,0.0026 h -0.0261 c -0.005,0 -0.009,0.0043 -0.009,0.0088 0,0 0,0.05969 0,0.06188 h 0.57009 c 0,-0.0022 0,-0.06188 0,-0.06188 0,-0.0046 -0.004,-0.0088 -0.008,-0.0088 h -0.0275 c -0.003,0 -0.006,-8.12e-4 -0.007,-0.0026 -0.002,-0.0015 -0.003,-0.0051 -0.003,-0.0077 v -0.03637 c 0,-0.0028 -7.1e-4,-0.005 -0.004,-0.0076 -0.003,-0.0029 -0.0222,-0.02205 -0.0318,-0.03154 V 25.22627 c 0,0 0,-0.0028 0,-0.0084 0,-0.0069 0.006,-0.0062 0.006,-0.0062 7.1e-4,0 0.007,0 0.007,0 0.008,0 0.009,-0.0062 0.009,-0.01393 0,-0.0087 0,-0.0303 0,-0.04258 0,-0.01196 0.002,-0.03789 0.007,-0.04671 0.005,-0.007 0.004,-0.01598 -0.0102,-0.01598 -7e-4,0 -0.0166,0 -0.018,0 -0.0166,0 -0.0187,-0.01873 -0.0109,-0.02522 0.0536,-0.04367 0.0593,-0.119733 0.0593,-0.134479 0,-0.01309 -7e-4,-0.0248 0.0131,-0.0248 l 0.0247,-2.82e-4" />
    <path
       inkscape:connector-curvature="0"
       id="path841"
       style="fill:#ffffff;fill-opacity:1;fill-rule:nonzero;stroke:none;stroke-width:0.03527778"
       d="m 122.3848,24.907677 c 0.005,0 0.009,-0.0033 0.009,-0.0087 v -0.09786 c 0,-0.0049 -0.004,-8.12e-4 -0.009,-8.12e-4 h -0.58314 c -0.005,0 -0.008,-0.0041 -0.008,8.12e-4 v 0.09786 c 0,0.0054 0.004,0.0087 0.008,0.0087 l 0.0251,2.82e-4 c 0.0116,0 0.0123,0.01171 0.0123,0.02314 0,0.0146 0.007,0.09038 0.06,0.136137 0.007,0.0066 0.004,0.02522 -0.0113,0.02522 -0.001,0 -0.0169,0 -0.0183,0 -0.013,0 -0.0138,0.009 -0.01,0.01598 0.005,0.0088 0.006,0.03475 0.006,0.04671 0,0.01228 0,0.0339 0,0.04258 0,0.0077 7e-4,0.01393 0.009,0.01393 h 0.008 c 0,0 0.006,-7.05e-4 0.006,0.0062 0,0.0056 0,0.0084 0,0.0084 v 2.143549 c -0.006,0.0066 -0.0289,0.02963 -0.0307,0.03126 -0.002,0.0018 -0.004,0.0046 -0.004,0.0079 v 0.03637 c 0,0.0026 -7e-4,0.0062 -0.002,0.0077 -0.002,0.0018 -0.006,0.0026 -0.008,0.0026 h -0.0268 c -0.005,0 -0.009,0.0043 -0.009,0.0088 0,0 0,0.05969 0,0.06188 h 0.57044 c 0,-0.0022 0,-0.06188 0,-0.06188 0,-0.0046 -0.004,-0.0088 -0.008,-0.0088 h -0.0275 c -0.003,0 -0.006,-8.12e-4 -0.008,-0.0026 -0.002,-0.0015 -0.003,-0.0051 -0.003,-0.0077 v -0.03637 c 0,-0.0028 -7.1e-4,-0.005 -0.003,-0.0076 -0.003,-0.0029 -0.0226,-0.02205 -0.0314,-0.03154 V 25.22627 c 0,0 0,-0.0028 0,-0.0084 0,-0.0069 0.005,-0.0062 0.005,-0.0062 7e-4,0 0.008,0 0.008,0 0.008,0 0.01,-0.0062 0.01,-0.01393 0,-0.0087 0,-0.0303 0,-0.04258 0,-0.01196 0.001,-0.03789 0.007,-0.04671 0.003,-0.007 0.002,-0.01598 -0.0106,-0.01598 -0.001,0 -0.0166,0 -0.0176,0 -0.0173,0 -0.0187,-0.01873 -0.0113,-0.02522 0.0533,-0.04367 0.0586,-0.119733 0.0586,-0.134479 0,-0.01309 -7.1e-4,-0.0248 0.0138,-0.0248 l 0.0243,-2.82e-4" />
    <path
       inkscape:connector-curvature="0"
       id="path843"
       style="fill:#ffffff;fill-opacity:1;fill-rule:nonzero;stroke:none;stroke-width:0.03527778"
       d="m 127.02101,22.63734 c 0,0 -0.0473,0 -0.06,0 -0.0159,0 -0.0152,-0.01309 -0.0152,-0.01309 0,0 0,-0.05154 0,-0.06463 0,-0.01654 -0.0162,-0.01654 -0.0162,-0.01654 0,0 -0.0441,0 -0.0589,0 -0.0162,0 -0.0155,-0.01475 -0.0155,-0.01475 v -0.05965 c 0,0 0,-0.01309 -0.0152,-0.01309 -0.006,0 -0.0258,0 -0.0353,0 -0.0123,0 -0.0254,-0.01034 -0.0261,-0.02741 -0.002,-0.08146 0.0261,-0.656661 -0.27764,-1.072938 -0.23918,-0.357611 -0.56868,-0.539257 -0.75036,-0.623712 -0.004,-0.07757 -0.11394,-0.106927 -0.16192,-0.123754 -0.0258,-0.0085 -0.0476,-0.01873 -0.0476,-0.04135 0,-0.0012 -7e-4,-0.02522 -7e-4,-0.02646 0,-0.02409 0.0222,-0.03376 0.055,-0.03281 0.0106,4.23e-4 0.018,-0.0085 0.018,-0.01513 v -0.06989 c 0,-0.0099 -0.009,-0.02106 -0.0233,-0.02106 -0.0243,0 -0.0519,-1.41e-4 -0.0656,-1.41e-4 -0.0159,0 -0.0233,-0.01432 -0.0233,-0.02304 0,-0.01418 0,-0.0078 0,-0.035 0,-0.02053 -0.0159,-0.0321 -0.0282,-0.03817 v -0.42926 c 0,-0.01446 0.0109,-0.01252 0.0205,-0.01252 0.001,0 0.004,0 0.005,-5.64e-4 h 10e-4 c 0.005,0 0.0102,-0.0049 0.0102,-0.01048 v -0.04092 c 0,-0.0059 -0.005,-0.01019 -0.0102,-0.01019 h -0.0194 c -0.007,-0.0032 -0.0116,-0.01214 -0.0116,-0.03129 0,-0.01983 0.006,-0.02921 0.0145,-0.03087 h 0.0166 c 0.005,0 0.0102,-0.0046 0.0102,-0.01019 v -0.04159 c 0,-0.0054 -0.005,-0.01009 -0.0102,-0.01009 h -0.0222 c -0.01,-0.0014 -0.0166,-0.0055 -0.0261,-0.01309 -0.073,-0.05786 -0.14676,-0.141252 -0.14676,-0.153635 0,-0.0068 0,-0.0072 0,-0.01545 0,-0.0088 -0.009,-0.02632 -0.0289,-0.02632 -0.0194,0 -0.0166,-0.02011 -0.006,-0.02011 0.007,0 0.008,-0.0019 0.008,-0.01143 0,-0.0059 0,-0.01669 0,-0.02783 0,-0.01242 -0.0374,-0.0641 -0.0374,-0.0641 h -0.002 c 0,0 -0.0381,0.05168 -0.0381,0.0641 0,0.01115 0,0.02191 0,0.02783 0,0.0095 0.003,0.01143 0.009,0.01143 0.0102,0 0.013,0.02011 -0.006,0.02011 -0.0201,0 -0.0289,0.0175 -0.0289,0.02632 0,0.0083 -7.1e-4,0.0087 -7.1e-4,0.01545 0,0.01238 -0.0737,0.09578 -0.14675,0.153635 -0.01,0.0076 -0.0166,0.01171 -0.0261,0.01309 h -0.0222 c -0.005,0 -0.0102,0.0047 -0.0102,0.01009 v 0.04159 c 0,0.0056 0.005,0.01019 0.0102,0.01019 h 0.0173 c 0.008,0.0017 0.0138,0.01104 0.0138,0.03087 0,0.01916 -0.005,0.02812 -0.0116,0.03129 h -0.0194 c -0.005,0 -0.0102,0.0043 -0.0102,0.01019 v 0.04092 c 0,0.0055 0.005,0.01048 0.0102,0.01048 h 10e-4 c 0.002,5.64e-4 0.004,5.64e-4 0.005,5.64e-4 0.01,0 0.0212,-0.0019 0.0212,0.01252 v 0.42926 c -0.0124,0.0061 -0.0289,0.01764 -0.0289,0.03817 0,0.02716 0,0.02081 0,0.035 0,0.0087 -0.007,0.02304 -0.0233,0.02304 -0.0138,0 -0.042,1.41e-4 -0.0656,1.41e-4 -0.0145,0 -0.024,0.01115 -0.024,0.02106 v 0.06989 c 0,0.0066 0.008,0.01556 0.018,0.01513 0.0332,-9.53e-4 0.0557,0.0087 0.0557,0.03281 0,0.0012 -7.1e-4,0.02522 -7.1e-4,0.02646 0,0.02261 -0.0226,0.03281 -0.0476,0.04135 -0.048,0.01683 -0.15839,0.04618 -0.16121,0.123754 -0.18239,0.08445 -0.51259,0.266101 -0.75036,0.623712 -0.30445,0.416277 -0.27552,0.991482 -0.27834,1.072938 -7.1e-4,0.01707 -0.0131,0.02741 -0.0261,0.02741 -0.009,0 -0.0296,0 -0.0353,0 -0.0152,0 -0.0152,0.01309 -0.0152,0.01309 v 0.05965 c 0,0 7.1e-4,0.01475 -0.0152,0.01475 -0.0152,0 -0.0596,0 -0.0596,0 0,0 -0.0152,0 -0.0152,0.01654 0,0.01309 0,0.06463 0,0.06463 0,0 7.1e-4,0.01309 -0.0166,0.01309 -0.012,0 -0.06,0 -0.06,0 0,0 -0.0166,0 -0.0166,0.01683 0,0.0098 0,0.04851 0,0.0696 0,0.0077 0.005,0.0091 0.0102,0.01005 0.018,0.0023 0.0543,0.01873 0.0543,0.05842 0,0.0678 0.0416,0.07426 0.0582,0.07426 v 0.250402 c 0,0.05828 -0.0455,0.08132 -0.0713,0.08752 -0.005,8.12e-4 -0.0123,0.0069 -0.0123,0.0139 0,0.0066 0,0.257704 0,0.257704 l 1.7586,-0.387915 h 0.002 l 1.75859,0.387915 c 0,0 0,-0.251072 0,-0.257704 0,-0.007 -0.008,-0.01309 -0.013,-0.0139 -0.0258,-0.0062 -0.0706,-0.02924 -0.0706,-0.08752 V 22.8665 c 0.0166,0 0.0582,-0.0065 0.0582,-0.07426 0,-0.03969 0.0363,-0.05609 0.0536,-0.05842 0.006,-9.88e-4 0.0109,-0.0024 0.0109,-0.01005 0,-0.0211 0,-0.05983 0,-0.0696 0,-0.01683 -0.0173,-0.01683 -0.0173,-0.01683" />
    <path
       inkscape:connector-curvature="0"
       id="path845"
       style="fill:#ffffff;fill-opacity:1;fill-rule:nonzero;stroke:none;stroke-width:0.03527778"
       d="m 128.96622,28.257549 v -0.514033 h -0.30056 v -0.224472 h -6.85765 v 0.224084 h -0.30127 v 0.513574 h -0.30233 v 0.519254 l 8.06414,5.64e-4 v -0.518971 h -0.30233" />
    <rect
       style="fill:#281c24;fill-opacity:1;stroke:none;stroke-width:0.25421941;stroke-miterlimit:4;stroke-dasharray:none;stroke-opacity:1"
       id="rect49"
       width="78.91906"
       height="40.041256"
       x="130.59126"
       y="0.11343765" />
    <flowRoot
       xml:space="preserve"
       id="flowRoot17-3"
       style="font-style:normal;font-variant:normal;font-weight:bold;font-stretch:normal;font-size:40px;line-height:0;font-family:sans-serif;-inkscape-font-specification:'sans-serif Bold';letter-spacing:0px;word-spacing:0px;fill:#ffffff;fill-opacity:1;stroke:none"
       transform="matrix(0.70810141,0,0,0.70810141,130.8331,-109.75891)"><flowRegion
         id="flowRegion19-6"
         style="font-style:normal;font-variant:normal;font-weight:bold;font-stretch:normal;font-family:sans-serif;-inkscape-font-specification:'sans-serif Bold';fill:#ffffff"><rect
           id="rect21-7"
           width="415"
           height="163.57143"
           x="0"
           y="201.8054"
           style="font-style:normal;font-variant:normal;font-weight:bold;font-stretch:normal;font-family:sans-serif;-inkscape-font-specification:'sans-serif Bold';fill:#ffffff" /></flowRegion><flowPara
         id="flowPara23-5">OST</flowPara></flowRoot>  </g>
</svg>
